<svg xmlns="http://www.w3.org/2000/svg" fill="#E1306C" viewBox="0 0 24 24">
  <path d="M12 2.163c3.204 0 3.584.012 4.85.07 1.366.062 2.633.34 3.608 1.314.975.975 1.252 2.241 1.314 3.608.059 1.266.07 1.646.07 4.85s-.012 3.584-.07 4.85c-.062 1.366-.34 2.633-1.314 3.608-.975.975-2.241 1.252-3.608 1.314-1.266.059-1.646.07-4.85.07s-3.584-.012-4.85-.07c-1.366-.062-2.633-.34-3.608-1.314-.975-.975-1.252-2.241-1.314-3.608C2.175 15.747 2.163 15.367 2.163 12s.012-3.584.07-4.85c.062-1.366.34-2.633 1.314-3.608C4.522 3.163 5.788 2.886 7.155 2.824c1.266-.059 1.646-.07 4.85-.07zm0-2.163C8.56 0 8.142.013 6.872.072 5.49.134 4.237.37 3.187 1.42 2.137 2.47 1.9 3.724 1.84 5.105c-.06 1.27-.072 1.688-.072 5.895s.013 4.626.072 5.895c.06 1.381.297 2.635 1.348 3.686 1.05 1.05 2.304 1.287 3.685 1.347 1.27.06 1.688.072 5.895.072s4.626-.013 5.895-.072c1.381-.06 2.635-.297 3.686-1.348 1.05-1.05 1.287-2.304 1.347-3.685.06-1.27.072-1.688.072-5.895s-.013-4.626-.072-5.895c-.06-1.381-.297-2.635-1.348-3.686C19.842.37 18.588.134 17.207.072 15.937.013 15.519 0 12 0zM12 5.838c-3.403 0-6.162 2.759-6.162 6.162s2.759 6.162 6.162 6.162 6.162-2.759 6.162-6.162S15.403 5.838 12 5.838zm0 10.125a3.963 3.963 0 1 1 0-7.926 3.963 3.963 0 0 1 0 7.926zM18.406 4.594a1.44 1.44 0 1 1 0-2.88 1.44 1.44 0 0 1 0 2.88z"/>
</svg>
